<?xml version="1.0" encoding="UTF-8"?>
<svg id="Layer_1" data-name="Layer 1" xmlns="http://www.w3.org/2000/svg" version="1.1" viewBox="0 0 189.5 45.4">
  <defs>
    <style>
      .cls-1 {
        fill: #fdfdfd;
      }

      .cls-1, .cls-2, .cls-3, .cls-4, .cls-5 {
        stroke-width: 0px;
      }

      .cls-2 {
        fill: none;
      }

      .cls-6 {
        fill: #fefefe;
      }

      .cls-6, .cls-7 {
        stroke: #231f20;
        stroke-linecap: round;
      }

      .cls-6, .cls-7, .cls-8 {
        stroke-miterlimit: 10;
      }

      .cls-3 {
        fill: #09f;
      }

      .cls-7 {
        fill: #e6e7e8;
      }

      .cls-8 {
        fill: #000;
        stroke: #000;
        stroke-width: .8px;
      }

      .cls-4 {
        fill: #fff;
      }

      .cls-5 {
        fill: #fcfcfc;
      }
    </style>
  </defs>
  <path class="cls-3" d="M47,25.6l-8.4,14.5c-1.1,1.8-3,2.9-5,2.9h-16.8c-2.1,0-3.9-1.1-5-2.9L3.5,25.6c-1.1-1.8-1.1-3.9,0-5.8L12,5.3c1.1-1.8,2.9-2.9,5-2.9h16.8c2,0,3.9,1.1,5,2.9l8.4,14.5c1.1,1.8,1.1,3.9,0,5.8h-.2Z"/>
  <g>
    <path class="cls-4" d="M26.6,22.8c0,.7-.7,1.2-1.4,1.1-.7-.1-1.2-.7-1.1-1.4,0-.7.7-1.2,1.4-1.1.7.1,1.2.7,1.1,1.4Z"/>
    <path class="cls-4" d="M25.7,19.7c-1.6-.2-3.2.9-3.4,2.6-.2,1.7.9,3.2,2.6,3.4,1.7.2,3.2-.9,3.4-2.6.2-1.7-.9-3.2-2.6-3.4ZM25.1,24.6c-1.1-.1-1.8-1.1-1.7-2.2.1-1.1,1.1-1.8,2.2-1.7,1.1.1,1.8,1.1,1.7,2.2-.1,1.1-1.1,1.8-2.2,1.7Z"/>
    <path class="cls-4" d="M42.1,31.4c-2.8-1.8-5.3-4-6.9-6.9,0-.2-.2-.2-.4-.2-2,0-3.8-1.3-4.2-3.2-.4-1.9.6-3.9,2.5-4.7.2,0,.4-.2.5-.5,1-2.5,1.5-5.2,1.4-7.9,0-.9-.2-1.8-.4-2.7h0s0,0,0,.2c-1.8,2.9-4,5.5-7.1,7.2-.2.1-.2.3-.2.5,0,2-1.3,3.8-3.2,4.2-1.9.4-3.9-.6-4.7-2.5,0-.2-.2-.3-.4-.4-2.6-1-5.3-1.5-8-1.4-.9,0-1.8.2-2.8.4.1,0,.2.1.3.2,2.8,1.7,5.2,3.8,6.9,6.5.3.5.6.7,1.2.8,1.9,0,3.5,1.5,3.8,3.4s-.7,3.7-2.5,4.4c-.2,0-.3.2-.4.4-1.1,2.7-1.6,5.6-1.4,8.5,0,.8.2,1.5.4,2.3h0c1.8-3.1,4.1-5.7,7.2-7.5.2,0,.2-.3.2-.5,0-1.9,1.3-3.5,3.2-4,1.8-.4,3.7.4,4.6,2.2.1.3.3.4.6.5,2.2.9,4.5,1.4,6.9,1.4s2.6-.1,3.9-.4c-.3-.2-.5-.3-.7-.4h-.2ZM24.8,26.4c-2-.3-3.5-2.1-3.2-4.2.3-2,2.1-3.4,4.2-3.2,2,.3,3.5,2.1,3.2,4.2-.3,2-2.1,3.5-4.1,3.2h-.1Z"/>
    <path class="cls-2" d="M25.8,19c-2-.3-3.9,1.2-4.2,3.2-.3,2,1.2,3.9,3.2,4.2,2,.3,3.9-1.2,4.1-3.2.3-2-1.2-3.9-3.2-4.2h.1ZM24.9,25.7c-1.7-.2-2.8-1.7-2.6-3.4.2-1.6,1.7-2.8,3.4-2.6,1.7.2,2.8,1.7,2.6,3.4-.2,1.7-1.7,2.8-3.4,2.6Z"/>
    <path class="cls-1" d="M26.6,22.8c0,.7-.7,1.2-1.4,1.1-.7-.1-1.2-.7-1.1-1.4,0-.7.7-1.2,1.4-1.1.7.1,1.2.7,1.1,1.4Z"/>
    <path class="cls-1" d="M25.7,19.7c-1.6-.2-3.2.9-3.4,2.6-.2,1.7.9,3.2,2.6,3.4,1.7.2,3.2-.9,3.4-2.6.2-1.7-.9-3.2-2.6-3.4ZM25.1,24.6c-1.1-.1-1.8-1.1-1.7-2.2.1-1.1,1.1-1.8,2.2-1.7,1.1.1,1.8,1.1,1.7,2.2-.1,1.1-1.1,1.8-2.2,1.7Z"/>
    <path class="cls-4" d="M26.6,22.8c0,.7-.7,1.2-1.4,1.1-.7-.1-1.2-.7-1.1-1.4,0-.7.7-1.2,1.4-1.1.7.1,1.2.7,1.1,1.4Z"/>
    <path class="cls-4" d="M25.7,19.7c-1.6-.2-3.2.9-3.4,2.6-.2,1.7.9,3.2,2.6,3.4,1.7.2,3.2-.9,3.4-2.6.2-1.7-.9-3.2-2.6-3.4ZM25.1,24.6c-1.1-.1-1.8-1.1-1.7-2.2.1-1.1,1.1-1.8,2.2-1.7,1.1.1,1.8,1.1,1.7,2.2-.1,1.1-1.1,1.8-2.2,1.7Z"/>
    <path class="cls-2" d="M25.5,20.7c-1.1-.1-2,.6-2.2,1.7-.1,1.1.6,2,1.7,2.2,1.1.1,2-.6,2.2-1.7.1-1.1-.6-2-1.7-2.2ZM25.1,23.9c-.7-.1-1.2-.7-1.1-1.4,0-.7.7-1.2,1.4-1.1.7.1,1.2.7,1.1,1.4,0,.7-.7,1.2-1.4,1.1Z"/>
    <path class="cls-5" d="M26.6,22.8c0,.7-.7,1.2-1.4,1.1-.7-.1-1.2-.7-1.1-1.4,0-.7.7-1.2,1.4-1.1.7.1,1.2.7,1.1,1.4Z"/>
    <path class="cls-4" d="M26.6,22.8c0,.7-.7,1.2-1.4,1.1-.7-.1-1.2-.7-1.1-1.4,0-.7.7-1.2,1.4-1.1.7.1,1.2.7,1.1,1.4Z"/>
  </g>
  <path class="cls-7" d="M-28.3,25.7"/>
  <path class="cls-6" d="M-1.1-22.9"/>
  <g>
    <path class="cls-8" d="M65.1,13.2c-.3-1.4-.8-2.8-1.2-3.5-.5-.8-1-1-2.3-1h-2.1c-1,0-1.1,0-1.1,1.3v8.1h2.9c1.6,0,1.9-.5,2.3-3.2h1v8.3h-1.1c-.3-2.5-.8-3.2-2.2-3.2h-2.9v5.8c0,3.4.2,3.7,2.6,3.9v1.4h-8.7v-1.4c2.1-.2,2.3-.4,2.3-3.9v-13.6c0-3.3-.2-3.6-2.3-3.8v-1.4h13.4c0,.7.2,3.8.3,6l-1.1.2h.1Z"/>
    <path class="cls-8" d="M73.8,14.3c3.8,0,6.3,3.9,6.3,8.4s-3.2,8.9-6.4,8.9-6.5-4.3-6.5-8.6,3.5-8.8,6.7-8.8h0ZM73.5,15.8c-1.2,0-2.3,1.6-2.3,6.2s1.1,8.2,2.8,8.2,2.2-1,2.2-6.4-1-8-2.7-8Z"/>
    <path class="cls-8" d="M89,31.2h-7.2v-1.3c1.4-.2,1.6-.4,1.6-2.6v-8.2c0-1.9-.1-2.1-1.4-2.4v-1.2c1.7-.2,3.3-.7,4.9-1.4v4c1.2-2.6,2.2-3.9,3.4-3.9s1.7,1,1.7,2.2-1,2.8-1.4,3.2c-.4.2-.7,0-.9-.2-.4-.5-.9-1.1-1.3-1.1s-1.1.4-1.6,1.9v7.1c0,2.2.2,2.3,2.1,2.6v1.3h.1Z"/>
    <path class="cls-8" d="M93.5,15.6c1.6-.2,3.4-.8,5.1-1.3v12.1c0,2.8-.2,4.4-.8,6.1-1.1,3.5-3.2,6.7-3.8,7.3-.4.3-.7.5-1,.5-.5,0-1.1-.9-1.1-2.1s.2-1,.7-1c1.2-.1,2-.3,2.1-.8.2-.4.3-1.3.3-2.6,0-2.1.1-4.6.1-7.1v-6.9c0-2.7-.2-2.7-1.6-3.1v-1.2h0ZM96.7,12c-1.1,0-2-1.2-2-2.6s1-2.6,2-2.6,2,1.1,2,2.6-.9,2.6-2,2.6Z"/>
    <path class="cls-8" d="M110.5,31.7c-.8,0-1.3-.3-1.7-.8s-.5-1-.8-1.4c-1.1,1-2.4,2.2-2.9,2.2-2.4,0-3.7-2.5-3.7-4.8s.7-2.8,2.1-3.6c1.6-.8,3.8-1.7,4.4-2.4v-1.6c0-2-.5-3.1-1.7-3.1s-.9.3-1.1.8c-.3.5-.4,1.3-.7,2.4-.2,1-.7,1.3-1.2,1.3s-1.6-.9-1.6-2,.3-1.2,1-1.7c1.2-1.1,2.8-2.2,4.4-2.6,1.1,0,2.1.3,2.8,1.1,1.2,1.1,1.5,2.7,1.5,4.6v6.4c0,1.7.4,2.2.9,2.2s.5-.1.9-.3l.3,1.3-2.9,2.1h.2ZM107.9,22.3c-.5.3-1,.8-1.5,1.2-.9.5-1.3,1.3-1.3,2.5,0,2.1,1.1,2.8,1.6,2.8s.8,0,1.2-.5v-5.9h0Z"/>
    <path class="cls-8" d="M123,7.1c2.2,0,3.8.5,4.9,1.5,1.4,1.2,2.2,3.1,2.2,5.6,0,5.3-3.4,7.6-6.3,7.6h-.9l-1.6-.5v5c0,3.2.2,3.3,2.6,3.6v1.4h-8.7v-1.4c2.1-.3,2.3-.4,2.3-3.6v-14.2c0-3.2-.3-3.5-2.3-3.6v-1.4h7.9ZM121.4,19.7c.3.2.9.3,1.4.3,1.3,0,3.3-1,3.3-5.9s-1.6-5.6-3.5-5.6-.9.2-1.1.3c-.2.2-.2.5-.2,1.2v9.6h.1Z"/>
    <path class="cls-8" d="M131.5,31.2v-1.3c1.5-.3,1.6-.5,1.6-2.8V10.2c0-2-.2-2.2-1.6-2.6v-1.2c1.9-.2,3.8-.7,5.1-1.3v21.9c0,2.4,0,2.6,1.6,2.8v1.3h-6.8Z"/>
    <path class="cls-8" d="M148.9,31.7c-.8,0-1.3-.3-1.7-.8-.4-.4-.5-1-.8-1.4-1.1,1-2.4,2.2-2.9,2.2-2.4,0-3.7-2.5-3.7-4.8s.7-2.8,2.1-3.6c1.6-.8,3.8-1.7,4.4-2.4v-1.6c0-2-.5-3.1-1.7-3.1s-.9.3-1.1.8c-.3.5-.4,1.3-.7,2.4-.2,1-.7,1.3-1.2,1.3s-1.6-.9-1.6-2,.3-1.2,1-1.7c1.2-1.1,2.8-2.2,4.4-2.6,1.1,0,2.1.3,2.8,1.1,1.2,1.1,1.5,2.7,1.5,4.6v6.4c0,1.7.4,2.2.9,2.2s.5-.1.9-.3l.3,1.3-2.9,2.1h.2ZM146.4,22.3c-.5.3-1,.8-1.5,1.2-.9.5-1.3,1.3-1.3,2.5,0,2.1,1.1,2.8,1.6,2.8s.8,0,1.2-.5v-5.9h0Z"/>
    <path class="cls-8" d="M164.8,16.1c-1.3.2-1.6.7-2.3,2.6s-1.4,4.7-3.1,9.9c-1.9,6-2.4,8.5-2.9,10.6-.2.9-.5,1.1-1,1.1-1.1,0-2.2-1.1-2.2-2.4s.2-.9.8-1.4c1.1-.9,1.9-1.5,2.3-2.7.3-.7.5-1.6.7-2.1.1-.5,0-.9-.1-1.4-1.4-5.3-3.2-10.5-3.7-12s-.9-2-2.2-2.3v-1.3h6.9v1.3c-1.2.2-1.4.5-1.1,1.6l2.2,7.9c.7-2.1,1.6-5.5,2.1-7.5.3-1.2,0-1.6-1.4-2v-1.3h5v1.3h.1Z"/>
    <path class="cls-8" d="M175.9,27.6c-1.6,3.4-3.8,4-5,4-3.7,0-5.8-3.7-5.8-8.1s.9-5.1,2.1-6.7c1.2-1.6,2.7-2.6,4.3-2.6,2.7,0,4.6,3.1,4.5,6.1,0,.7,0,1.3-.3,1.4-.5.2-4.4.4-7.1.5.1,3.9,1.7,5.9,3.7,5.9s2.2-.5,3.2-1.6l.5,1h0ZM171,15.8c-1.1,0-2.1,1.7-2.2,4.7,1.1,0,2.2,0,3.3-.1.4,0,.5-.1.5-.8,0-1.9-.7-3.8-1.6-3.8Z"/>
    <path class="cls-8" d="M185,31.2h-7.2v-1.3c1.4-.2,1.6-.4,1.6-2.6v-8.2c0-1.9-.1-2.1-1.4-2.4v-1.2c1.7-.2,3.3-.7,4.9-1.4v4c1.2-2.6,2.2-3.9,3.4-3.9s1.7,1,1.7,2.2-1,2.8-1.4,3.2c-.4.2-.7,0-.9-.2-.4-.5-.9-1.1-1.3-1.1s-1.1.4-1.6,1.9v7.1c0,2.2.2,2.3,2.1,2.6v1.3h.1Z"/>
  </g>
</svg>